<svg viewBox="0 0 40 40" xmlns="http://www.w3.org/2000/svg">
  <rect x="0" y="0" width="40" height="40" rx="8" fill="#16305e"/>
  <g transform="translate(20,20)" stroke="#5baee8" stroke-width="1.3" stroke-linecap="round">
    <line x1="0" y1="-4" x2="0" y2="-13"/>
    <line x1="4" y1="0" x2="13" y2="0"/>
    <line x1="0" y1="4" x2="0" y2="13"/>
    <line x1="-4" y1="0" x2="-13" y2="0"/>
    <line x1="9" y1="-9" x2="14" y2="-14"/>
    <line x1="-9" y1="-9" x2="-14" y2="-14"/>
    <line x1="9" y1="9" x2="14" y2="14"/>
    <line x1="-9" y1="9" x2="-14" y2="14"/>
  </g>
  <g fill="#f5f4ef">
    <circle cx="20" cy="6" r="2"/>
    <circle cx="34" cy="20" r="2"/>
    <circle cx="20" cy="34" r="2"/>
    <circle cx="6" cy="20" r="2"/>
  </g>
  <g fill="#5baee8">
    <circle cx="29" cy="11" r="1.4"/>
    <circle cx="11" cy="11" r="1.4"/>
    <circle cx="29" cy="29" r="1.4"/>
    <circle cx="11" cy="29" r="1.4"/>
  </g>
  <circle cx="20" cy="20" r="4.5" fill="#16305e" stroke="#5baee8" stroke-width="1.3"/>
</svg>
